<svg height="512" viewBox="0 0 64 64" width="512" xmlns="http://www.w3.org/2000/svg"><path d="M45 29v-2h3v-4c0-2.206-1.794-4-4-4-1.103 0-2-.897-2-2v-2h2c1.103 0 2 .897 2 2h2c0-1.858-1.279-3.411-3-3.858V11h-2v2h-3v4c0 2.206 1.794 4 4 4 1.103 0 2 .897 2 2v2h-2c-1.103 0-2-.897-2-2h-2c0 1.858 1.279 3.411 3 3.858V29zm-26 8c-1.103 0-2-.897-2-2h-2c0 1.858 1.279 3.411 3 3.858V41h2v-2h3v-4c0-2.206-1.794-4-4-4-1.103 0-2-.897-2-2v-2h2c1.103 0 2 .897 2 2h2c0-1.858-1.279-3.411-3-3.858V23h-2v2h-3v4c0 2.206 1.794 4 4 4 1.103 0 2 .897 2 2v2zm32-18h2v2h-2zm-16 0h2v2h-2z"/><path d="M60.345 15.38a16.883 16.883 0 00-1.521-3.669l1.238-2.518-5.255-5.255-2.519 1.239a16.863 16.863 0 00-3.669-1.521L47.716 1h-7.432l-.904 2.655c-1.279.361-2.51.871-3.669 1.521l-2.519-1.239-5.255 5.255 1.238 2.518a16.983 16.983 0 00-1.521 3.669L25 16.284v3.474A24.154 24.154 0 0019 19C9.075 19 1 24.832 1 32v18c0 7.168 8.075 13 18 13s18-5.832 18-13V35.467c.771.349 1.564.648 2.38.878L40.284 39h7.432l.904-2.655a16.863 16.863 0 003.669-1.521l2.519 1.239 5.255-5.255-1.238-2.518a16.983 16.983 0 001.521-3.669L63 23.716v-7.432zM19 21c8.822 0 16 4.935 16 11s-7.178 11-16 11S3 38.065 3 32s7.178-11 16-11zm16.73 6.233a12.118 12.118 0 00-1.429-2.046A11.022 11.022 0 0133 20c0-6.065 4.935-11 11-11s11 4.935 11 11-4.935 11-11 11a10.995 10.995 0 01-8.27-3.767zM12 43.977v3.899c-1.474-.496-2.822-1.14-4-1.909v-3.7a20.405 20.405 0 004 1.71zm6 10.988a22.342 22.342 0 01-4-.523v-3.963c1.281.268 2.62.429 4 .484zm2-4.002a24.266 24.266 0 004-.484v3.963a22.525 22.525 0 01-4 .523zm0-1.998v-4.002a24.266 24.266 0 004-.484v3.963a22.342 22.342 0 01-4 .523zm-2 0a22.342 22.342 0 01-4-.523v-3.963c1.281.268 2.62.429 4 .484zm-6 1.012v3.899c-1.474-.496-2.822-1.14-4-1.909v-3.7a20.405 20.405 0 004 1.71zm0 6v3.899c-1.474-.496-2.822-1.14-4-1.909v-3.7a20.405 20.405 0 004 1.71zm2 .502c1.281.268 2.62.429 4 .484v4.002a22.342 22.342 0 01-4-.523zm6 .484a24.266 24.266 0 004-.484v3.963a22.525 22.525 0 01-4 .523zm6-.986a20.345 20.345 0 004-1.71v3.7c-1.178.769-2.526 1.413-4 1.909zm0-2.101v-3.9a20.345 20.345 0 004-1.71v3.7c-1.178.77-2.526 1.414-4 1.91zm0-6v-3.9a20.345 20.345 0 004-1.71v3.7c-1.178.77-2.526 1.414-4 1.91zM3 37.928c.797 1.117 1.809 2.138 3 3.039v3.421C4.12 42.585 3 40.383 3 38zm0 6c.797 1.117 1.809 2.138 3 3.039v3.421C4.12 48.585 3 46.383 3 44zM3 50v-.072c.797 1.117 1.809 2.138 3 3.039v3.421C4.12 54.585 3 52.383 3 50zm32 0c0 2.383-1.12 4.585-3 6.388v-3.421c1.191-.9 2.203-1.922 3-3.039zm0-6c0 2.383-1.12 4.585-3 6.388v-3.421c1.191-.9 2.203-1.922 3-3.039zm-3 .388v-3.421c1.191-.9 2.203-1.922 3-3.039V38c0 2.383-1.12 4.585-3 6.388zm29-22.104l-2.324.792-.131.53a14.907 14.907 0 01-1.711 4.127l-.282.468 1.085 2.204-3.231 3.23-2.204-1.084-.468.283a14.855 14.855 0 01-4.128 1.71l-.53.131L46.284 37h-4.568l-.791-2.325-.53-.131A14.89 14.89 0 0137 33.238V32c0-.38-.035-.755-.079-1.127A12.943 12.943 0 0044 33c7.168 0 13-5.832 13-13S51.168 7 44 7s-13 5.832-13 13c0 .847.107 1.688.271 2.516A19.354 19.354 0 0027 20.372v-2.656l2.324-.792.131-.53c.36-1.455.936-2.843 1.711-4.127l.282-.468-1.085-2.204 3.231-3.23 2.204 1.084.468-.283a14.855 14.855 0 014.128-1.71l.53-.131L41.716 3h4.568l.791 2.325.53.131c1.456.36 2.845.936 4.128 1.71l.468.283 2.204-1.084 3.231 3.23-1.085 2.204.282.468a14.92 14.92 0 011.711 4.127l.131.53 2.325.792z"/><path d="M25 31h2v2h-2zm4 0h2v2h-2zM7 31h2v2H7zm4 0h2v2h-2zm48 8h2v2h-2zm0 4h2v2h-2zm2-2h2v2h-2zm-4 0h2v2h-2zm-16 5h2v2h-2zm0 4h2v2h-2zm2-2h2v2h-2zm-4 0h2v2h-2zM22 1h2v2h-2zm0 4h2v2h-2zm2-2h2v2h-2zm-4 0h2v2h-2zm-8 8h2v2h-2zm0 4h2v2h-2zm2-2h2v2h-2zm-4 0h2v2h-2zm43 37h2v2h-2zm0 4h2v2h-2zm2-2h2v2h-2zm-4 0h2v2h-2z"/></svg>