<svg height="512" viewBox="0 0 64 64" width="512" xmlns="http://www.w3.org/2000/svg"><path d="M19.265 35.286l-2.045-.512A2.926 2.926 0 0115 31.931 2.933 2.933 0 0117.931 29h.139A2.933 2.933 0 0121 31.931V32l2-.069c0-2.4-1.725-4.399-4-4.837V25h-2v2.094a4.934 4.934 0 00-4 4.837 4.923 4.923 0 003.735 4.784l2.045.512A2.926 2.926 0 0121 40.07 2.933 2.933 0 0118.069 43h-.139A2.933 2.933 0 0115 40.069V39h-2v1.069c0 2.4 1.725 4.399 4 4.837V47h2v-2.094a4.934 4.934 0 004-4.837 4.922 4.922 0 00-3.735-4.783z"/><path d="M55 35v26h-2V39h-8v22h-2V43h-8v18h-2.184c.112-.314.184-.648.184-1v-2a2.98 2.98 0 00-.78-2c.48-.532.78-1.229.78-2v-2c0-1.654-1.346-3-3-3h-1.051a17.02 17.02 0 005.838-10.374L41 32.414l5 5 9-9 4.614 4.614 2.661-13.303-13.303 2.661L53.586 27 46 34.586l-5-5-6.009 6.009a17.025 17.025 0 00-3.932-10.685l-5.074-6.089A2.997 2.997 0 0028 16c0-1.654-1.346-3-3-3h-.382l2.952-5.904c.281-.562.43-1.192.43-1.821V5.07A4.075 4.075 0 0023.93 1h-3.86c-1.485 0-2.774.808-3.485 2H12.07A4.075 4.075 0 008 7.07c0 .807.236 1.587.684 2.258L11.132 13H11c-1.654 0-3 1.346-3 3 0 1.307.846 2.41 2.015 2.82L4.94 24.91A17.03 17.03 0 001 35.793V36c0 5.063 2.259 9.803 6.05 13H6c-1.654 0-3 1.346-3 3v2c0 .771.301 1.468.78 2A2.98 2.98 0 003 58v2c0 1.654 1.346 3 3 3h57V35zm4.725-12.725l-1.339 6.697-5.357-5.357zM47 41h4v20h-4zm-10 4h4v16h-4zM10.348 8.219A2.073 2.073 0 0112.07 5h3.937c0 .024-.007.046-.007.07V9h2V5.07C18 3.929 18.929 3 20.07 3h3.859C25.071 3 26 3.929 26 5.07v.205c0 .32-.076.64-.219.926L22.382 13h-8.847zM11 15h14c.551 0 1 .449 1 1s-.449 1-1 1H11c-.551 0-1-.449-1-1s.449-1 1-1zM3 36v-.207a15.03 15.03 0 013.477-9.603L12.468 19h11.064l5.992 7.19A15.035 15.035 0 0133 35.793V36a15.016 15.016 0 01-7.524 13H10.523A15.017 15.017 0 013 36zm2 16c0-.551.449-1 1-1h1v2h2v-2h2v2h2v-2h2v2h2v-2h2v2h2v-2h2v2h2v-2h2v2h2v-2h1c.551 0 1 .449 1 1v2c0 .551-.449 1-1 1H6c-.551 0-1-.449-1-1zm24 9H6c-.551 0-1-.449-1-1v-2c0-.551.449-1 1-1h1v2h2v-2h2v2h2v-2h2v2h2v-2h2v2h2v-2h2v2h2v-2h2v2h2v-2h1c.551 0 1 .449 1 1v2c0 .551-.449 1-1 1zm32 0h-4V37h4zM47 5h2v2h-2zm0 4h2v2h-2zm2-2h2v2h-2zm-4 0h2v2h-2z"/><path d="M43 14h2v2h-2zm0 4h2v2h-2zm2-2h2v2h-2zm-4 0h2v2h-2zm16-6h2v2h-2zm0 4h2v2h-2zm2-2h2v2h-2zm-4 0h2v2h-2zm-19 8h2v2h-2zm0 4h2v2h-2zm2-2h2v2h-2zm-4 0h2v2h-2zM33 5h2v2h-2zm0 4h2v2h-2zm2-2h2v2h-2zm-4 0h2v2h-2z"/></svg>