<svg display="none" xmlns="http://www.w3.org/2000/svg">
<!--<svg display="none" xmlns="http://www.w3.org/1999/xhtml">-->
    <symbol id="img1" viewBox="0 0 64 64">
        <g>
            <path d="M61,16a1,1,0,0,0-1,1V53H54.57a85.082,85.082,0,0,0-19.12,2.178,1.992,1.992,0,0,1-2.1-.834A22.732,22.732,0,0,1,45.211,51H57a1,1,0,0,0,1-1V43a1,1,0,0,0-2,0v6H45.211A24.728,24.728,0,0,0,33,52.212V25a1,1,0,0,0-2,0V52.211A24.724,24.724,0,0,0,18.789,49H8V13H23.4A7.605,7.605,0,0,1,31,20.605a1,1,0,1,0,2,0A7.605,7.605,0,0,1,40.6,13H56V39a1,1,0,0,0,2,0V12a1,1,0,0,0-1-1H40.6A9.613,9.613,0,0,0,32,16.332,9.613,9.613,0,0,0,23.4,11H7a1,1,0,0,0-1,1V50a1,1,0,0,0,1,1H18.789a22.732,22.732,0,0,1,11.863,3.344,2,2,0,0,1-2.1.834A85.069,85.069,0,0,0,9.43,53H4V17a1,1,0,0,0-2,0V54a1,1,0,0,0,1,1H9.43A83.117,83.117,0,0,1,28.1,57.127,3.98,3.98,0,0,0,32,55.859a3.978,3.978,0,0,0,3.9,1.268A83.145,83.145,0,0,1,54.57,55H61a1,1,0,0,0,1-1V17A1,1,0,0,0,61,16Z"/>
            <path d="M28.723,19.613A9.579,9.579,0,0,0,23.4,18H12a1,1,0,0,0,0,2H23.4a7.576,7.576,0,0,1,4.218,1.277,1,1,0,1,0,1.11-1.664Z"/>
            <path d="M52,18H40.6a9.581,9.581,0,0,0-5.328,1.613,1,1,0,0,0,1.11,1.664A7.581,7.581,0,0,1,40.6,20H52a1,1,0,0,0,0-2Z"/>
            <path d="M28.723,24.613A9.579,9.579,0,0,0,23.4,23H12a1,1,0,0,0,0,2H23.4a7.576,7.576,0,0,1,4.218,1.277,1,1,0,1,0,1.11-1.664Z"/>
            <path d="M52,23H40.6a9.581,9.581,0,0,0-5.328,1.613,1,1,0,0,0,1.11,1.664A7.581,7.581,0,0,1,40.6,25H52a1,1,0,0,0,0-2Z"/>
            <path d="M28.723,29.613A9.579,9.579,0,0,0,23.4,28H12a1,1,0,0,0,0,2H23.4a7.576,7.576,0,0,1,4.218,1.277,1,1,0,1,0,1.11-1.664Z"/>
            <path d="M52,28H40.6a9.581,9.581,0,0,0-5.328,1.613,1,1,0,0,0,1.11,1.664A7.581,7.581,0,0,1,40.6,30H52a1,1,0,0,0,0-2Z"/>
            <path d="M28.723,34.613A9.579,9.579,0,0,0,23.4,33H12a1,1,0,0,0,0,2H23.4a7.576,7.576,0,0,1,4.218,1.277,1,1,0,1,0,1.11-1.664Z"/>
            <path d="M52,33H40.6a9.581,9.581,0,0,0-5.328,1.613,1,1,0,0,0,1.11,1.664A7.581,7.581,0,0,1,40.6,35H52a1,1,0,0,0,0-2Z"/>
            <path d="M28.723,39.613A9.579,9.579,0,0,0,23.4,38H12a1,1,0,0,0,0,2H23.4a7.576,7.576,0,0,1,4.218,1.277,1,1,0,1,0,1.11-1.664Z"/>
            <path d="M52,38H40.6a9.581,9.581,0,0,0-5.328,1.613,1,1,0,0,0,1.11,1.664A7.581,7.581,0,0,1,40.6,40H52a1,1,0,0,0,0-2Z"/>
            <path d="M23.4,43H12a1,1,0,0,0,0,2H23.4a7.576,7.576,0,0,1,4.218,1.277,1,1,0,1,0,1.11-1.664A9.579,9.579,0,0,0,23.4,43Z"/>
            <path d="M52,43H40.6a9.581,9.581,0,0,0-5.328,1.613,1,1,0,0,0,1.11,1.664A7.581,7.581,0,0,1,40.6,45H52a1,1,0,0,0,0-2Z"/>
        </g>
    </symbol>
    <symbol id="money" viewBox="0 0 64 64">
        <g>
            <path d="m45 29v-2h3v-4c0-2.206-1.794-4-4-4-1.103 0-2-.897-2-2v-2h2c1.103 0 2 .897 2 2h2c0-1.858-1.279-3.411-3-3.858v-2.142h-2v2h-3v4c0 2.206 1.794 4 4 4 1.103 0 2 .897 2 2v2h-2c-1.103 0-2-.897-2-2h-2c0 1.858 1.279 3.411 3 3.858v2.142z"/>
            <path d="m19 37c-1.103 0-2-.897-2-2h-2c0 1.858 1.279 3.411 3 3.858v2.142h2v-2h3v-4c0-2.206-1.794-4-4-4-1.103 0-2-.897-2-2v-2h2c1.103 0 2 .897 2 2h2c0-1.858-1.279-3.411-3-3.858v-2.142h-2v2h-3v4c0 2.206 1.794 4 4 4 1.103 0 2 .897 2 2v2z"/>
            <path d="m51 19h2v2h-2z"/>
            <path d="m35 19h2v2h-2z"/>
            <path d="m60.345 15.38c-.361-1.279-.871-2.509-1.521-3.669l1.238-2.518-5.255-5.255-2.519 1.239c-1.159-.65-2.39-1.16-3.669-1.521l-.903-2.656h-7.432l-.904 2.655c-1.279.361-2.51.871-3.669 1.521l-2.519-1.239-5.255 5.255 1.238 2.518c-.649 1.16-1.159 2.39-1.521 3.669l-2.654.905v3.474c-1.88-.482-3.894-.758-6-.758-9.925 0-18 5.832-18 13v6 6 6c0 7.168 8.075 13 18 13s18-5.832 18-13v-6-6-2.533c.771.349 1.564.648 2.38.878l.904 2.655h7.432l.904-2.655c1.279-.361 2.51-.871 3.669-1.521l2.519 1.239 5.255-5.255-1.238-2.518c.649-1.16 1.159-2.39 1.521-3.669l2.654-.905v-7.432zm-41.345 5.62c8.822 0 16 4.935 16 11s-7.178 11-16 11-16-4.935-16-11 7.178-11 16-11zm16.73 6.233c-.393-.716-.874-1.398-1.429-2.046-.85-1.587-1.301-3.38-1.301-5.187 0-6.065 4.935-11 11-11s11 4.935 11 11-4.935 11-11 11c-3.165 0-6.174-1.374-8.27-3.767zm-23.73 16.744v3.899c-1.474-.496-2.822-1.14-4-1.909v-3.7c1.222.685 2.558 1.268 4 1.71zm6 10.988c-1.388-.059-2.729-.234-4-.523v-3.963c1.281.268 2.62.429 4 .484zm2-4.002c1.38-.055 2.719-.216 4-.484v3.963c-1.271.288-2.612.463-4 .523zm0-1.998v-4.002c1.38-.055 2.719-.216 4-.484v3.963c-1.271.289-2.612.464-4 .523zm-2 0c-1.388-.059-2.729-.234-4-.523v-3.963c1.281.268 2.62.429 4 .484zm-6 1.012v3.899c-1.474-.496-2.822-1.14-4-1.909v-3.7c1.222.685 2.558 1.268 4 1.71zm0 6v3.899c-1.474-.496-2.822-1.14-4-1.909v-3.7c1.222.685 2.558 1.268 4 1.71zm2 .502c1.281.268 2.62.429 4 .484v4.002c-1.388-.059-2.729-.234-4-.523zm6 .484c1.38-.055 2.719-.216 4-.484v3.963c-1.271.288-2.612.463-4 .523zm6-.986c1.442-.441 2.778-1.025 4-1.71v3.7c-1.178.769-2.526 1.413-4 1.909zm0-2.101v-3.9c1.442-.441 2.778-1.025 4-1.71v3.7c-1.178.77-2.526 1.414-4 1.91zm0-6v-3.9c1.442-.441 2.778-1.025 4-1.71v3.7c-1.178.77-2.526 1.414-4 1.91zm-23-9.948c.797 1.117 1.809 2.138 3 3.039v3.421c-1.88-1.803-3-4.005-3-6.388zm0 6c.797 1.117 1.809 2.138 3 3.039v3.421c-1.88-1.803-3-4.005-3-6.388zm0 6.072v-.072c.797 1.117 1.809 2.138 3 3.039v3.421c-1.88-1.803-3-4.005-3-6.388zm32 0c0 2.383-1.12 4.585-3 6.388v-3.421c1.191-.9 2.203-1.922 3-3.039zm0-6c0 2.383-1.12 4.585-3 6.388v-3.421c1.191-.9 2.203-1.922 3-3.039zm-3 .388v-3.421c1.191-.9 2.203-1.922 3-3.039v.072c0 2.383-1.12 4.585-3 6.388zm29-22.104-2.324.792-.131.53c-.36 1.455-.936 2.843-1.711 4.127l-.282.468 1.085 2.204-3.231 3.23-2.204-1.084-.468.283c-1.283.775-2.672 1.351-4.128 1.71l-.53.131-.792 2.325h-4.568l-.791-2.325-.53-.131c-1.183-.293-2.32-.736-3.395-1.306v-1.238c0-.38-.035-.755-.079-1.127 2.09 1.365 4.538 2.127 7.079 2.127 7.168 0 13-5.832 13-13s-5.832-13-13-13-13 5.832-13 13c0 .847.107 1.688.271 2.516-1.268-.856-2.703-1.579-4.271-2.144v-2.656l2.324-.792.131-.53c.36-1.455.936-2.843 1.711-4.127l.282-.468-1.085-2.204 3.231-3.23 2.204 1.084.468-.283c1.283-.775 2.672-1.351 4.128-1.71l.53-.131.792-2.325h4.568l.791 2.325.53.131c1.456.36 2.845.936 4.128 1.71l.468.283 2.204-1.084 3.231 3.23-1.085 2.204.282.468c.775 1.284 1.351 2.673 1.711 4.127l.131.53 2.325.792z"/>
            <path d="m25 31h2v2h-2z"/>
            <path d="m29 31h2v2h-2z"/>
            <path d="m7 31h2v2h-2z"/>
            <path d="m11 31h2v2h-2z"/>
            <path d="m59 39h2v2h-2z"/>
            <path d="m59 43h2v2h-2z"/>
            <path d="m61 41h2v2h-2z"/>
            <path d="m57 41h2v2h-2z"/>
            <path d="m41 46h2v2h-2z"/>
            <path d="m41 50h2v2h-2z"/>
            <path d="m43 48h2v2h-2z"/>
            <path d="m39 48h2v2h-2z"/>
            <path d="m22 1h2v2h-2z"/>
            <path d="m22 5h2v2h-2z"/>
            <path d="m24 3h2v2h-2z"/>
            <path d="m20 3h2v2h-2z"/>
            <path d="m12 11h2v2h-2z"/>
            <path d="m12 15h2v2h-2z"/>
            <path d="m14 13h2v2h-2z"/>
            <path d="m10 13h2v2h-2z"/>
            <path d="m53 50h2v2h-2z"/>
            <path d="m53 54h2v2h-2z"/>
            <path d="m55 52h2v2h-2z"/>
            <path d="m51 52h2v2h-2z"/>
        </g>
    </symbol>
    <symbol id="analysis" viewBox="0 0 512 512">
        <g>
            <path d="M326.623,133.062c13.785,0,25-11.215,25-25s-11.215-25.001-25-25.001s-25,11.216-25,25.001   c0,5.63,1.872,10.83,5.025,15.014l-41.076,57.401c-2.451-0.805-5.066-1.247-7.784-1.247c-6.569,0-12.551,2.551-17.017,6.709   l-27.379-15.536c0.365-1.696,0.561-3.454,0.561-5.257c0-13.785-11.215-25-25-25s-25,11.215-25,25c0,1.803,0.196,3.561,0.561,5.257   l-27.379,15.536c-4.466-4.158-10.448-6.708-17.017-6.708c-13.785,0-25,11.216-25,25.001s11.215,25.001,25,25.001   s25-11.216,25-25.001c0-1.803-0.196-3.561-0.561-5.257l27.379-15.536c4.466,4.158,10.448,6.709,17.017,6.709   c6.569,0,12.55-2.551,17.017-6.708l27.379,15.536c-0.365,1.696-0.561,3.454-0.561,5.257c0,13.785,11.215,25.001,25,25.001   c13.786,0,25.001-11.216,25.001-25.001c0-5.631-1.873-10.832-5.026-15.016l41.076-57.401   C321.289,132.62,323.905,133.062,326.623,133.062z M326.623,98.061c5.514,0,10,4.486,10,10.001c0,5.514-4.486,10-10,10   s-10-4.486-10-10C316.622,102.547,321.108,98.061,326.623,98.061z M120.115,214.231c-5.514,0-10-4.486-10-10.001   s4.486-10.001,10-10.001s10,4.486,10,10.001S125.629,214.231,120.115,214.231z M188.951,175.146c-5.514,0-10-4.486-10-10.001   c0-5.514,4.486-10,10-10s10,4.486,10,10C198.952,170.66,194.465,175.146,188.951,175.146z M257.787,214.231   c-5.514,0-10-4.486-10-10.001s4.486-10.001,10-10.001c5.515,0,10.001,4.486,10.001,10.001S263.301,214.231,257.787,214.231z"/>
            <path d="M418.796,376.965H366.31H80.428H21.215c-3.427,0-6.215-2.788-6.215-6.215V61.331c0-3.427,2.788-6.215,6.215-6.215h35.356   c4.142,0,7.5-3.357,7.5-7.5s-3.358-7.5-7.5-7.5H21.215C9.517,40.116,0,49.633,0,61.331V370.75c0,11.698,9.517,21.215,21.215,21.215   h51.713v16.506c0,9.403,7.65,17.053,17.053,17.053h75.074l-35.34,68.998c-1.888,3.687-0.431,8.206,3.256,10.095   c1.094,0.561,2.262,0.826,3.413,0.826c2.725,0,5.354-1.49,6.681-4.083l38.843-75.836h82.922l38.843,75.836   c1.328,2.593,3.956,4.083,6.681,4.083c1.151,0,2.319-0.267,3.413-0.826c3.687-1.889,5.145-6.408,3.256-10.095l-35.34-68.998h75.074   c9.403,0,17.053-7.649,17.053-17.053v-16.506h44.986c4.142,0,7.5-3.357,7.5-7.5S422.938,376.965,418.796,376.965z M358.81,408.471   c0,1.132-0.921,2.053-2.053,2.053H89.981c-1.132,0-2.053-0.921-2.053-2.053v-16.506H358.81V408.471z"/>
            <path d="M86.571,55.116h102.672h68.251h168.028c3.427,0,6.215,2.788,6.215,6.215v71.311c0,4.143,3.358,7.5,7.5,7.5   s7.5-3.357,7.5-7.5V61.331c0-11.698-9.517-21.215-21.215-21.215H264.995V25.374c0-10.375-8.441-18.816-18.817-18.816H200.56   c-10.375,0-18.817,8.441-18.817,18.816v14.742H86.571c-4.142,0-7.5,3.357-7.5,7.5S82.429,55.116,86.571,55.116z M196.743,25.374   c0-2.104,1.712-3.816,3.817-3.816h45.618c2.104,0,3.817,1.712,3.817,3.816v14.742h-53.251V25.374z"/>
            <path d="M104.902,267.576c-4.142,0-7.5,3.357-7.5,7.5v66.272c0,4.143,3.358,7.5,7.5,7.5h30.427c4.142,0,7.5-3.357,7.5-7.5v-66.272   c0-4.143-3.358-7.5-7.5-7.5H104.902z M127.829,333.849h-15.427v-51.272h15.427V333.849z"/>
            <path d="M173.737,229.248c-4.142,0-7.5,3.357-7.5,7.5v104.601c0,4.143,3.358,7.5,7.5,7.5h30.427c4.142,0,7.5-3.357,7.5-7.5V236.748   c0-4.143-3.358-7.5-7.5-7.5H173.737z M196.665,333.849h-15.427v-89.601h15.427V333.849z"/>
            <path d="M242.573,267.576c-4.142,0-7.5,3.357-7.5,7.5v66.272c0,4.143,3.358,7.5,7.5,7.5H273c4.142,0,7.5-3.357,7.5-7.5v-66.272   c0-4.143-3.358-7.5-7.5-7.5H242.573z M265.5,333.849h-15.427v-51.272H265.5V333.849z"/>
            <path d="M311.409,311.832c-4.142,0-7.5,3.357-7.5,7.5v22.017c0,4.143,3.358,7.5,7.5,7.5h30.427c4.142,0,7.5-3.357,7.5-7.5   s-3.358-7.5-7.5-7.5h-22.927v-14.517C318.909,315.189,315.551,311.832,311.409,311.832z"/>
            <path d="M508.175,384.019l-43.027-74.526c10.901-11.619,18.839-25.816,23.079-41.64c6.777-25.291,3.299-51.708-9.793-74.384   c-27.026-46.813-87.097-62.906-133.907-35.881c-46.811,27.025-62.906,87.096-35.88,133.907   c13.092,22.676,34.231,38.896,59.522,45.674c8.446,2.263,17.015,3.382,25.53,3.382c7.442,0,14.841-0.856,22.077-2.55l43.018,74.528   c5.273,9.137,14.875,14.25,24.737,14.249c4.833,0,9.729-1.229,14.208-3.813c8.796-5.077,14.261-14.544,14.261-24.706   C512,393.28,510.678,388.357,508.175,384.019z M372.051,322.68c-21.421-5.74-39.326-19.479-50.415-38.685   c-22.89-39.648-9.257-90.526,30.39-113.417c13.043-7.53,27.296-11.106,41.374-11.106c28.715,0,56.683,14.893,72.043,41.497   c11.088,19.206,14.034,41.58,8.294,63.002c-5.74,21.422-19.479,39.325-38.685,50.414   C415.847,325.474,393.473,328.418,372.051,322.68z M490.242,409.973c-6.453,3.726-14.733,1.508-18.456-4.942l-41.388-71.704   c4.148-1.693,8.21-3.673,12.156-5.951c3.949-2.28,7.689-4.818,11.23-7.566l41.4,71.707c1.188,2.061,1.816,4.393,1.816,6.743   C497,403.078,494.41,407.567,490.242,409.973z"/>
            <path d="M461.542,263.611c5.295-17.056,4.034-35.316-3.551-51.416c-1.766-3.748-6.234-5.354-9.981-3.589   c-3.748,1.766-5.354,6.234-3.588,9.981c5.983,12.7,6.976,27.109,2.795,40.575c-4.204,13.54-13.286,24.903-25.573,31.997   c-13.002,7.508-28.151,9.5-42.652,5.615c-14.502-3.886-26.624-13.187-34.13-26.189c-15.497-26.841-6.267-61.285,20.574-76.782   c19.625-11.329,43.98-9.815,62.051,3.857c3.304,2.5,8.007,1.849,10.506-1.455c2.499-3.303,1.848-8.007-1.456-10.506   c-22.891-17.321-53.745-19.238-78.602-4.887c-16.472,9.51-28.255,24.866-33.178,43.238s-2.396,37.562,7.114,54.034   c9.51,16.473,24.866,28.255,43.238,33.179c6.135,1.644,12.361,2.457,18.546,2.457c12.338,0,24.517-3.236,35.488-9.571   C444.71,295.163,456.216,280.767,461.542,263.611z"/>
        </g>
    </symbol>
    <symbol id="rising" viewBox="0 0 64 64">
        <g>
            <path d="m19.265 35.286-2.045-.512c-1.307-.326-2.22-1.496-2.22-2.843 0-1.617 1.314-2.931 2.931-2.931h.139c1.616 0 2.93 1.314 2.93 2.931v.069l2-.069c0-2.4-1.725-4.399-4-4.837v-2.094h-2v2.094c-2.275.437-4 2.436-4 4.837 0 2.268 1.536 4.234 3.735 4.784l2.045.512c1.307.326 2.22 1.496 2.22 2.843 0 1.616-1.314 2.93-2.931 2.93h-.139c-1.616 0-2.93-1.314-2.93-2.931v-1.069h-2v1.069c0 2.4 1.725 4.399 4 4.837v2.094h2v-2.094c2.275-.437 4-2.436 4-4.837 0-2.267-1.536-4.234-3.735-4.783z"/>
            <path d="m55 35v26h-2v-22h-8v22h-2v-18h-8v18h-2.184c.112-.314.184-.648.184-1v-2c0-.771-.301-1.468-.78-2 .48-.532.78-1.229.78-2v-2c0-1.654-1.346-3-3-3h-1.051c3.126-2.636 5.204-6.323 5.838-10.374l6.213-6.212 5 5 9-9 4.614 4.614 2.661-13.303-13.303 2.661 4.614 4.614-7.586 7.586-5-5-6.009 6.009c-.046-3.899-1.433-7.687-3.932-10.685l-5.074-6.089c1.169-.411 2.015-1.514 2.015-2.821 0-1.654-1.346-3-3-3h-.382l2.952-5.904c.281-.562.43-1.192.43-1.821v-.205c0-2.244-1.826-4.07-4.07-4.07h-3.86c-1.485 0-2.774.808-3.485 2h-4.515c-2.244 0-4.07 1.826-4.07 4.07 0 .807.236 1.587.684 2.258l2.448 3.672h-.132c-1.654 0-3 1.346-3 3 0 1.307.846 2.41 2.015 2.82l-5.075 6.09c-2.541 3.049-3.94 6.914-3.94 10.883v.207c0 5.063 2.259 9.803 6.05 13h-1.05c-1.654 0-3 1.346-3 3v2c0 .771.301 1.468.78 2-.479.532-.78 1.229-.78 2v2c0 1.654 1.346 3 3 3h23 1 33v-28zm4.725-12.725-1.339 6.697-5.357-5.357zm-12.725 18.725h4v20h-4zm-10 4h4v16h-4zm-26.652-36.781c-.228-.342-.348-.739-.348-1.149 0-1.141.929-2.07 2.07-2.07h3.937c0 .024-.007.046-.007.07v3.93h2v-3.93c0-1.141.929-2.07 2.07-2.07h3.859c1.142 0 2.071.929 2.071 2.07v.205c0 .32-.076.64-.219.926l-3.399 6.799h-8.847zm.652 6.781h14c.551 0 1 .449 1 1s-.449 1-1 1h-14c-.551 0-1-.449-1-1s.449-1 1-1zm-8 21v-.207c0-3.502 1.235-6.912 3.477-9.603l5.991-7.19h11.064l5.992 7.19c2.241 2.691 3.476 6.101 3.476 9.603v.207c0 5.368-2.879 10.323-7.524 13h-14.953c-4.644-2.677-7.523-7.632-7.523-13zm2 16c0-.551.449-1 1-1h1v2h2v-2h2v2h2v-2h2v2h2v-2h2v2h2v-2h2v2h2v-2h2v2h2v-2h1c.551 0 1 .449 1 1v2c0 .551-.449 1-1 1h-24c-.551 0-1-.449-1-1zm24 9h-23c-.551 0-1-.449-1-1v-2c0-.551.449-1 1-1h1v2h2v-2h2v2h2v-2h2v2h2v-2h2v2h2v-2h2v2h2v-2h2v2h2v-2h1c.551 0 1 .449 1 1v2c0 .551-.449 1-1 1zm32 0h-4v-24h4z"/>
            <path d="m47 5h2v2h-2z"/>
            <path d="m47 9h2v2h-2z"/>
            <path d="m49 7h2v2h-2z"/>
            <path d="m45 7h2v2h-2z"/>
            <path d="m43 14h2v2h-2z"/>
            <path d="m43 18h2v2h-2z"/>
            <path d="m45 16h2v2h-2z"/>
            <path d="m41 16h2v2h-2z"/>
            <path d="m57 10h2v2h-2z"/>
            <path d="m57 14h2v2h-2z"/>
            <path d="m59 12h2v2h-2z"/>
            <path d="m55 12h2v2h-2z"/>
            <path d="m36 20h2v2h-2z"/>
            <path d="m36 24h2v2h-2z"/>
            <path d="m38 22h2v2h-2z"/>
            <path d="m34 22h2v2h-2z"/>
            <path d="m33 5h2v2h-2z"/>
            <path d="m33 9h2v2h-2z"/>
            <path d="m35 7h2v2h-2z"/>
            <path d="m31 7h2v2h-2z"/>
        </g>
    </symbol>
</svg>